HIERARCHY
ROOT root     
{
	OFFSET 0.0000 0.0000 0.0000
	CHANNELS 6 Xposition Yposition Zposition Zrotation Yrotation Xrotation
	JOINT pelvis   
	{
		OFFSET 0.0000 0.0000 0.0000
		CHANNELS 3 Zrotation Yrotation Xrotation
		JOINT thorax   
		{
			OFFSET 0.0000 23.0750 -5.0000
			CHANNELS 3 Zrotation Yrotation Xrotation
			JOINT rclavicle
			{
				OFFSET 0.0000 28.0009 0.0000
				CHANNELS 3 Zrotation Yrotation Xrotation
				JOINT rhumerus 
				{
					OFFSET -18.5725 5.5939 0.0000
					CHANNELS 3 Zrotation Yrotation Xrotation
					JOINT rradius  
					{
						OFFSET -24.8459 0.0000 0.0000
						CHANNELS 3 Zrotation Yrotation Xrotation
						JOINT rhand    
						{
							OFFSET -24.5477 0.0000 0.0000
							CHANNELS 3 Zrotation Yrotation Xrotation
							End Site
							{
								OFFSET -8.1826 0.0000 0.0000
							}
						}
					}
				}
			}
			JOINT lclavicle
			{
				OFFSET 0.0000 28.0009 0.0000
				CHANNELS 3 Zrotation Yrotation Xrotation
				JOINT lhumerus 
				{
					OFFSET 18.5725 5.5939 0.0000
					CHANNELS 3 Zrotation Yrotation Xrotation
					JOINT lradius  
					{
						OFFSET 24.8459 0.0000 0.0000
						CHANNELS 3 Zrotation Yrotation Xrotation
						JOINT lhand    
						{
							OFFSET 24.5477 0.0000 0.0000
							CHANNELS 3 Zrotation Yrotation Xrotation
							End Site
							{
								OFFSET 8.1826 0.0000 0.0000
							}
						}
					}
				}
			}
			JOINT head     
			{
				OFFSET 0.0000 35.2030 0.0000
				CHANNELS 3 Zrotation Yrotation Xrotation
				End Site
				{
					OFFSET 0.0000 11.7343 0.0000
				}
			}
		}
		JOINT rfemur   
		{
			OFFSET -8.2817 0.0000 0.0000
			CHANNELS 3 Zrotation Yrotation Xrotation
			JOINT rtibia   
			{
				OFFSET 0.0000 -43.3627 0.0000
				CHANNELS 3 Zrotation Yrotation Xrotation
				JOINT rfoot    
				{
					OFFSET 0.0000 -38.2947 0.0000
					CHANNELS 3 Zrotation Yrotation Xrotation
					JOINT rtoes    
					{
						OFFSET 0.0000 0.0000 16.6054
						CHANNELS 3 Zrotation Yrotation Xrotation
						End Site
						{
							OFFSET 0.0000 0.0000 5.5351
						}
					}
				}
			}
		}
		JOINT lfemur   
		{
			OFFSET 8.2817 0.0000 0.0000
			CHANNELS 3 Zrotation Yrotation Xrotation
			JOINT ltibia   
			{
				OFFSET 0.0000 -43.3627 0.0000
				CHANNELS 3 Zrotation Yrotation Xrotation
				JOINT lfoot    
				{
					OFFSET 0.0000 -38.2947 0.0000
					CHANNELS 3 Zrotation Yrotation Xrotation
					JOINT ltoes    
					{
						OFFSET 0.0000 0.0000 16.6054
						CHANNELS 3 Zrotation Yrotation Xrotation
						End Site
						{
							OFFSET 0.0000 0.0000 5.5351
						}
					}
				}
			}
		}
	}
}
MOTION
Frames: 19
Frame Time: .0333333
116.94 85.039 19.714 122.963 -87.612 -102.249 0 -0 0 -7.65149 -1.0503 -8.05225 27.1102 -7.34346 3.15537e-05 44.757 14.476 15.8966 -1.89428e-06 81.5323 -2.19698e-06 2.60268 5.63745 0.128199 -24.0307 13.5528 5.60417e-05 -46.2445 15.0929 -3.74912 0 -60.4153 0 5.26941 2.3262 0.1071 7.38472 2.46414 -2.66225 -6.03273 -2.75107 -4.71673 -0 -0 32.3078 -7.05106e-05 13.7522 30.1207 7.00177 -3.66659e-05 -92.2697 -3.51104 0.0115854 -39.4112 -0 -0 26.2967 -3.85331e-06 6.36332 4.18611 0.466404 4.52751e-06 -38.7943 
115.78 84.647 19.799 119.147 -87.6167 -98.7372 0 -0 0 -7.92369 -1.22991 -8.05413 27.2466 -7.35961 1.50057e-05 45.1003 14.3309 15.441 -3.84912e-06 81.4844 -4.0058e-06 2.12966 5.97649 0.111198 -24.1019 13.6136 -2.06272e-05 -46.1609 14.8865 -3.93488 4.27842e-07 -60.0488 -7.40312e-07 5.50038 2.51832 0.121 7.93828 2.4372 -2.31782 -6.38407 -3.46287 -4.69221 -0 -0 34.0838 2.45294e-05 14.9649 30.7898 7.7911 -4.66674e-05 -91.389 -3.50946 -0.431415 -39.6598 -0 -0 28.9547 4.26347e-06 6.66427 3.22983 0.377198 -2.75604e-06 -36.443 
114.62 84.285 19.885 115.693 -87.6004 -95.5766 0 -0 0 -8.20008 -1.38239 -8.04128 27.3544 -7.37334 2.09836e-05 45.5294 14.1391 14.9972 -0 81.3135 -0 1.6024 6.2833 0.0879998 -24.2085 13.6813 -2.52856e-06 -46.034 14.5081 -4.04418 0 -59.5849 0 5.73921 2.67296 0.134 8.4167 2.40149 -2.01622 -6.76787 -4.11628 -4.7666 -0 -0 35.9444 -5.1709e-05 16.077 31.5849 8.58387 1.90497e-05 -89.9762 -3.55975 -0.828882 -39.7817 -0 -0 31.4494 1.52258e-06 7.00406 2.15019 0.264101 3.64332e-07 -34.3605 
113.49 83.965 19.972 113.028 -87.4999 -93.1978 0 -0 0 -8.49638 -1.4935 -8.0131 27.4433 -7.38383 7.99849e-06 46.0419 13.8972 14.5667 -2.08017e-06 81.02 -1.77737e-06 1.03729 6.52767 0.0591996 -24.3557 13.7476 -8.6129e-05 -45.8625 13.9666 -4.08663 5.78025e-07 -59.0329 -1.02099e-06 5.98482 2.79547 0.146199 8.82046 2.35767 -1.75695 -7.18989 -4.71296 -4.94826 -0 -0 37.8801 -0.000165734 17.0025 32.4847 9.32662 8.06725e-07 -88.0328 -3.66975 -1.17522 -39.7436 -0 -0 33.6586 2.6136e-07 7.38233 0.979301 0.1269 3.24523e-07 -32.7494 
112.36 83.694 20.062 111.465 -87.3625 -91.9088 0 -0 0 -8.82287 -1.55441 -7.97372 27.519 -7.39214 6.20914e-05 46.6216 13.6055 14.1558 -1.41e-06 80.6025 -1.19584e-06 0.445207 6.68614 0.0260006 -24.5367 13.8043 1.23169e-05 -45.6558 13.2753 -4.07493 0 -58.3963 0 6.23337 2.8898 0.157403 9.15204 2.30734 -1.53295 -7.65244 -5.25935 -5.24327 -0 -0 39.8741 -0.000139333 17.6407 33.4505 9.94261 6.72733e-05 -85.6135 -3.84421 -1.46193 -39.5227 -0 -0 35.4992 -1.13692e-07 7.79128 -0.250202 -0.0342006 -3.05098e-07 -31.7241 
111.26 83.477 20.147 111.133 -87.2037 -91.8227 0 -0 0 -9.1419 -1.56011 -7.9424 27.5814 -7.39942 2.76565e-05 47.2498 13.2696 13.7753 -3.28397e-06 80.0525 -3.4408e-06 -0.163303 6.74395 -0.0096002 -24.7585 13.8468 -0.000143745 -45.4248 12.4602 -4.02394 0 -57.6899 0 6.48057 2.95951 0.167599 9.40228 2.25305 -1.32963 -8.11021 -5.74315 -5.66342 -0 -0 41.9009 -0.000134821 17.8623 34.4365 10.3286 1.35974e-05 -82.841 -4.05501 -1.66061 -39.1378 -0 -0 36.9438 2.35046e-06 8.19898 -1.50755 -0.2172 8.8946e-08 -31.3164 
110.17 83.318 20.233 111.912 -86.9785 -92.8415 0 -0 0 -9.48874 -1.5134 -7.90412 27.641 -7.40151 4.34631e-05 47.9159 12.8916 13.4245 -1.78028e-06 79.3666 -1.47713e-06 -0.761604 6.69695 -0.0446006 -25.0074 13.8713 -8.16527e-05 -45.1776 11.5461 -3.94187 0 -56.9352 0 6.72542 3.01578 0.1772 9.58373 2.19802 -1.13484 -8.5974 -6.19369 -6.18603 -0 -0 43.9418 -4.47311e-05 17.5915 35.3843 10.4033 -1.25077e-05 -79.9212 -4.32397 -1.78601 -38.5583 -0 -0 37.9523 -7.16683e-06 8.60799 -2.74574 -0.415496 1.36208e-06 -31.4629 
109.08 83.219 20.318 113.544 -86.7255 -94.7106 0 -0 0 -9.85101 -1.4211 -7.8597 27.6973 -7.39747 -6.56224e-06 48.6 12.4782 13.1097 -1.66484e-06 78.5507 -1.36147e-06 -1.33158 6.55308 -0.0761982 -25.2759 13.8762 8.32851e-05 -44.9306 10.5608 -3.83789 5.10197e-07 -56.1557 -9.56407e-07 6.96422 3.06244 0.186403 9.69932 2.1465 -0.932702 -9.0998 -6.61456 -6.79563 -0 -0 45.9643 2.40773e-05 16.746 36.2303 10.0839 2.84955e-05 -77.0719 -4.63926 -1.836 -37.7851 -0 -0 38.5286 -1.70645e-06 9.00051 -3.91771 -0.620009 1.01368e-06 -32.0476 
108.01 83.175 20.392 115.889 -86.4499 -97.2786 0 -0 0 -10.1615 -1.2948 -7.82872 27.7494 -7.39795 5.39866e-05 49.2623 12.0509 12.8557 -0 77.6115 -0 -1.86697 6.33023 -0.103199 -25.5685 13.8616 -0.000104424 -44.7016 9.54302 -3.72534 0 -55.3757 0 7.19071 3.09822 0.194701 9.74068 2.10344 -0.7052 -9.54665 -6.98729 -7.4914 -0 -0 47.932 -2.6219e-05 15.2554 36.9091 9.30196 -3.35467e-05 -74.4734 -4.94678 -1.79032 -36.8641 -0 -0 38.7283 -6.37753e-06 9.33762 -4.98255 -0.818197 2.66998e-06 -32.9177 
106.94 83.186 20.457 118.584 -86.1867 -100.196 0 -0 0 -10.4285 -1.15251 -7.80038 27.8014 -7.40174 1.00128e-05 49.8847 11.6159 12.6647 -8.04098e-07 76.554 -1.01902e-06 -2.33947 6.05764 -0.123798 -25.8679 13.8297 -7.64272e-05 -44.5014 8.52041 -3.60382 0 -54.6247 0 7.40306 3.12632 0.202305 9.7199 2.0729 -0.4428 -9.94577 -7.32611 -8.24352 -0 -0 49.8146 -0.000179728 13.1381 37.3421 8.05851 -1.3751e-05 -72.2319 -5.24671 -1.67242 -35.793 -0 -0 38.5763 3.51888e-06 9.61801 -5.89081 -0.996412 -5.4015e-06 -33.8961 
105.87 83.245 20.507 121.479 -85.9434 -103.3 0 -0 0 -10.6066 -1.0163 -7.78844 27.8494 -7.41074 1.09065e-05 50.4452 11.1778 12.5467 -0 75.4001 -0 -2.72669 5.77061 -0.1375 -26.1755 13.7839 2.67206e-05 -44.3392 7.52201 -3.47182 0 -53.9329 0 7.59802 3.14486 0.208904 9.63861 2.05926 -0.136401 -10.2521 -7.62503 -9.04898 -0 -0 51.5836 -4.84519e-06 10.4524 37.4466 6.40005 -5.99245e-05 -70.3224 -5.50054 -1.4879 -34.6159 -0 -0 38.1442 1.18228e-06 9.82303 -6.60848 -1.14149 5.31556e-06 -34.829 
104.8 83.348 20.553 124.161 -85.6855 -106.212 0 -0 0 -10.7565 -0.906905 -7.75371 27.9 -7.42615 -8.18861e-06 50.9418 10.7417 12.4988 -9.43815e-07 74.174 -1.24856e-06 -3.00036 5.51565 -0.144599 -26.4601 13.729 5.53479e-06 -44.2231 6.55944 -3.31909 0 -53.3255 0 7.77479 3.15218 0.214303 9.52539 2.06435 0.206201 -10.5282 -7.91115 -9.85161 -0 -0 53.2083 5.18761e-05 7.35845 37.1505 4.45933 2.48732e-05 -68.6883 -5.7468 -1.28969 -33.2981 -0 -0 37.4486 -2.30935e-06 9.98081 -7.09815 -1.24583 -1.56303e-06 -35.6087 
103.73 83.488 20.583 126.645 -85.4806 -108.907 0 -0 0 -10.7995 -0.850297 -7.73594 27.9454 -7.45375 8.1475e-07 51.3464 10.3064 12.5314 -1.16763e-06 72.8999 -8.62394e-07 -3.14804 5.32358 -0.146403 -26.7311 13.6703 -0.000172276 -44.1548 5.65714 -3.13919 4.44467e-07 -52.8279 -8.94839e-07 7.92861 3.1424 0.217805 9.37519 2.09025 0.586713 -10.6912 -8.16618 -10.6809 -0 -0 54.6694 -2.04363e-05 4.01863 36.4096 2.38781 -1.76769e-05 -67.1251 -5.92193 -1.0733 -31.9333 -0 -0 36.5921 9.05698e-07 10.0653 -7.35837 -1.30232 -1.82009e-05 -36.1798 
102.67 83.662 20.599 128.723 -85.3184 -111.187 0 -0 0 -10.7605 -0.866493 -7.72049 27.9901 -7.4955 -5.89458e-05 51.657 9.8694 12.6378 -0 71.609 -0 -3.15248 5.22634 -0.143903 -26.9714 13.6072 4.32296e-05 -44.1361 4.81975 -2.91942 4.37844e-07 -52.4551 -8.88727e-07 8.05687 3.11174 0.219206 9.20765 2.13646 0.989383 -10.7663 -8.40308 -11.5153 -0 -0 55.9511 1.70789e-06 0.661994 35.2237 0.381899 -9.21087e-07 -65.4754 -6.03953 -0.873832 -30.5298 -0 -0 35.6177 -3.45911e-06 10.0941 -7.39046 -1.31185 -1.0853e-05 -36.5321 
101.62 83.862 20.603 130.306 -85.215 -112.95 0 -0 0 -10.6396 -0.971693 -7.71047 28.0324 -7.55314 -5.44578e-05 51.8719 9.42516 12.808 -0 70.3342 -0 -3.00453 5.24282 -0.137602 -27.1749 13.5454 -3.95513e-05 -44.1601 4.05013 -2.64722 0 -52.224 0 8.15676 3.05666 0.218003 9.03604 2.2014 1.3974 -10.7499 -8.62429 -12.3545 -0 -0 57.0423 -1.25463e-05 -2.50232 33.6403 -1.38681 -2.33171e-06 -63.6412 -6.09548 -0.70851 -29.1259 -0 -0 34.5777 -5.63222e-06 10.072 -7.21703 -1.27833 7.75899e-07 -36.7001 
100.59 84.086 20.594 131.295 -85.1931 -114.088 0 -0 0 -10.444 -1.1754 -7.7053 28.074 -7.62722 -9.31511e-06 51.9918 8.96606 13.0242 -9.60007e-07 69.1053 -1.39409e-06 -2.70037 5.3763 -0.1268 -27.3371 13.4823 6.66077e-05 -44.2207 3.34472 -2.31178 0 -52.1412 0 8.22418 2.9757 0.214 8.8727 2.28178 1.7902 -10.6478 -8.83348 -13.1989 -0 -0 57.9404 -5.2193e-05 -5.30388 31.7504 -2.79676 -2.8649e-05 -61.5537 -6.09176 -0.588911 -27.7503 -0 -0 33.5152 -5.34843e-06 10.0049 -6.87163 -1.20917 1.14823e-05 -36.7439 
99.57 84.328 20.572 131.636 -85.25 -114.542 0 -0 0 -10.1794 -1.47991 -7.70688 28.1147 -7.72022 -8.07579e-05 52.0214 8.48951 13.2655 -9.42777e-07 67.9445 -6.35244e-07 -2.24505 5.6172 -0.110197 -27.4553 13.418 2.79819e-05 -44.3097 2.69859 -1.90649 0 -52.2105 0 8.25588 2.86919 0.207104 8.72726 2.37385 2.14737 -10.4637 -9.03218 -14.057 -0 -0 58.6443 1.91928e-07 -7.63731 29.6778 -3.79842 4.80448e-05 -59.3034 -6.03054 -0.51657 -26.4318 -0 -0 32.4594 7.27719e-07 9.8949 -6.39528 -1.1131 7.82339e-06 -36.7454 
98.573 84.586 20.536 131.27 -85.3702 -114.251 0 -0 0 -9.85791 -1.87938 -7.71317 28.1556 -7.83202 2.81764e-05 51.9684 7.9947 13.5053 -0 66.8721 -0 -1.64859 5.93924 -0.0854992 -27.529 13.3489 -4.13383e-05 -44.4152 2.10462 -1.42899 0 -52.4322 0 8.24822 2.74083 0.197699 8.60719 2.47307 2.44843 -10.2094 -9.22356 -14.9325 -0 -0 59.1621 -2.7736e-05 -9.45539 27.5503 -4.40471 -1.98117e-05 -57.0143 -5.919 -0.486721 -25.1879 -0 -0 31.4317 -7.01795e-07 9.74445 -5.82748 -0.998902 3.94779e-06 -36.7966 
97.598 84.856 20.489 130.124 -85.5706 -113.137 0 -0 0 -9.4905 -2.36132 -7.71701 28.1978 -7.95889 -2.93174e-05 51.847 7.47662 13.708 -0 65.895 -0 -0.925613 6.30353 -0.0510006 -27.5582 13.2725 -1.13559e-05 -44.5292 1.55193 -0.881812 0 -52.8024 0 8.19896 2.59675 0.186099 8.51621 2.57595 2.67643 -9.89755 -9.41111 -15.8254 -0 -0 59.5044 -4.26496e-05 -10.759 25.4808 -4.67326 7.24677e-06 -54.8043 -5.76463 -0.487114 -24.0204 -0 -0 30.4371 9.2643e-06 9.55389 -5.20225 -0.874286 2.12453e-06 -36.9928 
